
<svg width="390px" height="133px" viewBox="0 0 390 133" version="1.1" xmlns="http://www.w3.org/2000/svg" xmlns:xlink="http://www.w3.org/1999/xlink">
    <g id="Page-1" stroke="none" stroke-width="1" fill="none" fill-rule="evenodd">
        <g id="TD_Lab_logos_outlines" transform="translate(-105.000000, -183.000000)" fill="#0B0B09">
            <path d="M247.414,296.734 L336.465,296.734 L291.941,218.513 L247.414,296.734 Z M366.72,314.324 L217.162,314.324 L291.941,182.955 L366.72,314.324 L366.72,314.324 Z" id="Fill-25"></path>
            <path d="M392.961,188.956 L447.607,188.956 C461.646,188.956 472.262,192.7 479.456,200.19 C484.909,205.867 487.635,212.872 487.635,221.206 L487.635,221.569 C487.635,225.433 487.143,228.847 486.157,231.806 C485.17,234.765 483.895,237.361 482.328,239.598 C480.761,241.833 478.905,243.794 476.758,245.487 C474.611,247.177 472.436,248.627 470.232,249.834 C473.829,251.161 477.107,252.703 480.064,254.454 C483.023,256.206 485.576,258.288 487.723,260.704 C489.869,263.12 491.522,265.959 492.683,269.22 C493.842,272.481 494.422,276.286 494.422,280.635 L494.422,280.997 C494.422,286.674 493.349,291.687 491.203,296.035 C489.057,300.383 486.012,304.007 482.067,306.905 C478.121,309.805 473.365,312.01 467.796,313.519 C462.226,315.029 456.078,315.784 449.348,315.784 L392.961,315.784 L392.961,188.956 Z M443.257,242.404 C450.219,242.404 455.787,240.985 459.964,238.147 C464.141,235.309 466.229,230.991 466.229,225.192 L466.229,224.831 C466.229,219.758 464.401,215.802 460.747,212.964 C457.092,210.123 451.785,208.704 444.823,208.704 L414.019,208.704 L414.019,242.404 L443.257,242.404 Z M449.522,296.035 C456.832,296.035 462.574,294.585 466.752,291.687 C470.929,288.788 473.017,284.44 473.017,278.64 L473.017,278.279 C473.017,272.843 470.957,268.648 466.839,265.687 C462.719,262.728 456.425,261.248 447.955,261.248 L414.019,261.248 L414.019,296.035 L449.522,296.035 L449.522,296.035 Z" id="Fill-26"></path>
            <polyline id="Fill-27" points="105.484 188.956 126.666 188.956 126.666 295.492 190.036 295.492 190.036 315.784 105.484 315.784 105.484 188.956"></polyline>
        </g>
    </g>
</svg>